<svg width="410" height="122" viewBox="0 0 410 122" fill="none" xmlns="http://www.w3.org/2000/svg">
<mask id="mask0_125_2" style="mask-type:luminance" maskUnits="userSpaceOnUse" x="36" y="49" width="86" height="15">
<path d="M36.666 49.3333H121.999V63.9999H36.666V49.3333Z" fill="white"/>
</mask>
<g mask="url(#mask0_125_2)">
<path d="M159.515 50.1665H90.8483L87.916 55.2342H81.1296L78.1973 50.1665C75.666 50.1665 43.9889 50.1665 41.4577 50.1665L37.666 56.7342L41.4577 63.3019C43.9889 63.3019 75.666 63.3019 78.1973 63.3019L81.1296 58.2342H87.916L90.8483 63.3019H159.515C160.27 58.9634 160.27 54.5155 159.515 50.1665Z" fill="#3C00FF"/>
</g>
<mask id="mask1_125_2" style="mask-type:luminance" maskUnits="userSpaceOnUse" x="52" y="17" width="70" height="15">
<path d="M52.666 17.3333H121.999V31.9999H52.666V17.3333Z" fill="white"/>
</mask>
<g mask="url(#mask1_125_2)">
<path d="M65.2435 31.0102L68.1758 25.9373H74.9622L77.8945 31.0102H150.29C136.681 15.6717 121.421 17.8592 103.02 17.8592H77.8945L74.9622 22.9269H68.1758L65.2435 17.8592H57.6602L53.8633 24.4269L57.6602 30.9946H65.2435V31.0102Z" fill="#3C00FF"/>
</g>
<mask id="mask2_125_2" style="mask-type:luminance" maskUnits="userSpaceOnUse" x="88" y="33" width="34" height="15">
<path d="M88.666 33.3333H121.999V47.9999H88.666V33.3333Z" fill="white"/>
</mask>
<g mask="url(#mask2_125_2)">
<path d="M110.593 39.0885H103.807L100.874 34.0208H93.2858L89.4941 40.5885L93.2858 47.1562H100.874L103.807 42.0833H110.593L113.525 47.1562H158.88C157.65 42.3593 155.531 37.9166 152.702 34.0051H113.525L110.593 39.0885Z" fill="#3C00FF"/>
</g>
<mask id="mask3_125_2" style="mask-type:luminance" maskUnits="userSpaceOnUse" x="16" y="49" width="16" height="15">
<path d="M16 49.3333H31.3333V63.9999H16V49.3333Z" fill="white"/>
</mask>
<g mask="url(#mask3_125_2)">
<path d="M19.8014 50.1665L16.0098 56.7342L19.8014 63.3123H27.4004L31.1921 56.7342L27.4004 50.1665H19.8014Z" fill="#3C00FF"/>
</g>
<path d="M67.8379 40.5885L71.6296 47.1562H79.2285L83.0202 40.5885L79.2285 34.0208H71.6296L67.8379 40.5885Z" fill="#3C00FF"/>
<path d="M45.7233 82.4583L41.916 89.0416L45.7233 95.6093H53.3066L57.0983 89.0416L53.3066 82.4583H45.7233Z" fill="#3C00FF"/>
<mask id="mask4_125_2" style="mask-type:luminance" maskUnits="userSpaceOnUse" x="56" y="65" width="66" height="15">
<path d="M56.666 65.3333H121.999V79.9999H56.666V65.3333Z" fill="white"/>
</mask>
<g mask="url(#mask4_125_2)">
<path d="M78.1966 71.3802H71.4049L68.4727 66.3125H60.8893L57.0977 72.8802L60.8893 79.4479H68.4727L71.4049 74.3802H78.1966L81.1289 79.4479H152.686C155.514 75.5365 157.639 71.0937 158.863 66.2969C135.108 66.2969 104.874 66.2969 81.1133 66.2969L78.1966 71.3802Z" fill="#3C00FF"/>
</g>
<mask id="mask5_125_2" style="mask-type:luminance" maskUnits="userSpaceOnUse" x="63" y="81" width="59" height="15">
<path d="M63.334 81.3333H122.001V95.9999H63.334V81.3333Z" fill="white"/>
</mask>
<g mask="url(#mask5_125_2)">
<path d="M97.6419 87.5416H90.8503L87.918 82.4739C81.0794 82.4739 74.2253 82.4739 67.3711 82.4739L63.5742 89.0416L67.3711 95.6093C74.2253 95.6093 81.0638 95.6093 87.918 95.6093L90.8503 90.5364H97.6419L100.574 95.6093C120.007 95.6093 136.335 98.203 150.293 82.4583H100.574L97.6419 87.5416Z" fill="#3C00FF"/>
</g>
<path d="M182.635 70.5866H176.01L173.052 50.9408L164.052 70.5449H162.469L153.49 50.9408L150.51 70.5866H143.844L148.573 40.4824H155.115L163.24 58.9408L171.406 40.4824H177.948L182.635 70.5866Z" fill="white"/>
<path d="M212.718 40.4824L202.156 58.4199V70.5866H195.447V58.3783L184.947 40.4824H191.864L198.843 52.5241L205.801 40.4824H212.718Z" fill="white"/>
<path d="M225.493 71.2324C223.337 71.2324 221.42 70.7637 219.743 69.8366C218.076 68.9095 216.764 67.6283 215.805 66.0033C214.857 64.3678 214.389 62.472 214.389 60.3158V59.2324H220.847V59.9616C220.847 61.5189 221.269 62.7637 222.118 63.6908C222.962 64.623 224.087 65.0866 225.493 65.0866C226.811 65.0866 227.889 64.6283 228.722 63.7116C229.555 62.7949 229.972 61.5449 229.972 59.9616V40.4824H236.41V60.3158C236.41 62.472 235.951 64.3678 235.035 66.0033C234.118 67.6283 232.837 68.9095 231.201 69.8366C229.576 70.7637 227.67 71.2324 225.493 71.2324Z" fill="white"/>
<path d="M263.03 70.5866L260.926 64.8574H248.926L246.863 70.5866H239.988L251.759 40.4824H257.905L270.072 70.5866H263.03ZM254.905 48.4408L250.988 59.1908H258.863L254.905 48.4408Z" fill="white"/>
<path d="M293.003 40.4824H299.357V70.5866H293.94L280.315 51.7949V70.5866H273.898V40.4824H279.794L293.003 58.8574V40.4824Z" fill="white"/>
<path d="M319.436 54.8575H335.478C335.447 57.2325 335.061 59.42 334.311 61.42C333.561 63.4096 332.504 65.1283 331.145 66.5867C329.78 68.045 328.165 69.1856 326.29 70.0033C324.415 70.821 322.342 71.2325 320.082 71.2325C317.874 71.2325 315.816 70.8471 313.915 70.0867C312.025 69.3106 310.374 68.2221 308.957 66.8158C307.54 65.3992 306.441 63.7325 305.665 61.8158C304.9 59.8992 304.52 57.8263 304.52 55.5867C304.52 53.3263 304.895 51.2429 305.645 49.3367C306.405 47.42 307.483 45.7533 308.874 44.3367C310.259 42.92 311.9 41.8158 313.79 41.0242C315.691 40.2325 317.749 39.8367 319.957 39.8367C322.441 39.8367 324.749 40.3315 326.874 41.3158C328.999 42.2898 330.775 43.6388 332.207 45.3575C333.634 47.0658 334.582 49.0554 335.04 51.3158H328.332C327.707 49.6908 326.645 48.4096 325.145 47.4617C323.655 46.5033 321.967 46.0242 320.082 46.0242C318.301 46.0242 316.738 46.4356 315.395 47.2533C314.046 48.0763 312.988 49.1908 312.228 50.6075C311.462 52.0242 311.082 53.6856 311.082 55.5867C311.082 57.4513 311.457 59.0867 312.207 60.5033C312.957 61.92 314.004 63.0346 315.353 63.8367C316.697 64.644 318.275 65.045 320.082 65.045C322.025 65.045 323.77 64.5763 325.311 63.6283C326.863 62.6856 327.915 61.4356 328.457 59.8783H319.436V54.8575Z" fill="white"/>
<path d="M365.596 70.5866H357.659L347.034 55.8783V70.5866H340.492V40.4824H347.034V54.3783L356.888 40.4824H364.492L354.221 54.8991L365.596 70.5866Z" fill="white"/>
<path d="M388.696 70.5866L386.592 64.8574H374.592L372.529 70.5866H365.654L377.425 40.4824H383.571L395.738 70.5866H388.696ZM380.571 48.4408L376.654 59.1908H384.529L380.571 48.4408Z" fill="white"/>
<path d="M123.088 11.7239V102.172" stroke="#3C00FF" stroke-width="3" stroke-linecap="round"/>
</svg>
